# xmcd
#
# Track frame offsets: 
#        150
#        15941
#        31156
#        45118
#        59187
#        71049
#        91586
#        102932
#        115039
#        127713
#        140649
#        153666
#
# Disc length: 2233 seconds
#
# Revision: 0
# Processed by: cddbd v1.5.2PL0 Copyright (c) Steve Scherf et al.
# Submitted via: ExactAudioCopyFreeDBPlugin 1.0
#
DISCID=9008b70c
DTITLE=Pierre Perret - C'est l'printemps
DYEAR=2011
DGENRE=Variété française
TTITLE0=C'est l'printemps
TTITLE1=Femmes seules
TTITLE2=Quoi de plus sympa qu'un œuf
TTITLE3=Elle attend son petit
TTITLE4=Perette la môme lolo
TTITLE5=Amour liberté vérité
TTITLE6=Le phallo
TTITLE7=Angine de poitrine
TTITLE8=Le vrai bonheur
TTITLE9=Y'a cinquant' gosses dans l'escalier
TTITLE10=Les coups au cœur
TTITLE11=Un temps pour tout
EXTD=Intégrale 1957 - 2011
EXTT0=
EXTT1=
EXTT2=
EXTT3=
EXTT4=
EXTT5=
EXTT6=
EXTT7=
EXTT8=
EXTT9=
EXTT10=
EXTT11=
PLAYORDER=
